
      <svg data-logo="logo" xmlns="http://www.w3.org/2000/svg" viewBox="0 0 126 43">
        <g id="logogram" transform="translate(0, 1) rotate(0) "><path d="M0.452637 20.81C0.452637 9.76427 9.40694 0.809967 20.4526 0.809967H46.7026C57.7484 0.809967 66.7026 9.76427 66.7026 20.81V40.81H20.4526C9.40694 40.81 0.452637 31.8557 0.452637 20.81Z" fill="#4845D2"/><path d="M46.7026 8.30997H20.4526C13.5491 8.30997 7.95264 13.9064 7.95264 20.81C7.95264 27.7135 13.5491 33.31 20.4526 33.31H46.7026C53.6062 33.31 59.2026 27.7135 59.2026 20.81C59.2026 13.9064 53.6062 8.30997 46.7026 8.30997Z" fill="#A5B4FC"/><path d="M20.4526 27.06C23.9044 27.06 26.7026 24.2617 26.7026 20.81C26.7026 17.3582 23.9044 14.56 20.4526 14.56C17.0009 14.56 14.2026 17.3582 14.2026 20.81C14.2026 24.2617 17.0009 27.06 20.4526 27.06Z" fill="black"/><path d="M17.9526 19.56C18.643 19.56 19.2026 19.0003 19.2026 18.31C19.2026 17.6196 18.643 17.06 17.9526 17.06C17.2623 17.06 16.7026 17.6196 16.7026 18.31C16.7026 19.0003 17.2623 19.56 17.9526 19.56Z" fill="white"/><path d="M47.9526 27.06C51.4044 27.06 54.2026 24.2617 54.2026 20.81C54.2026 17.3582 51.4044 14.56 47.9526 14.56C44.5009 14.56 41.7026 17.3582 41.7026 20.81C41.7026 24.2617 44.5009 27.06 47.9526 27.06Z" fill="black"/><path d="M45.4526 19.56C46.143 19.56 46.7026 19.0003 46.7026 18.31C46.7026 17.6196 46.143 17.06 45.4526 17.06C44.7623 17.06 44.2026 17.6196 44.2026 18.31C44.2026 19.0003 44.7623 19.56 45.4526 19.56Z" fill="white"/></g>
        <g id="logotype" transform="translate(73, 12.5)"><path fill="#252323" d="M11.98 18L7.44 18L7.44 0.64L11.98 0.64L11.98 3.30Q12.65 1.97 13.70 1.22Q14.75 0.46 16.12 0.46L16.12 0.46L18.32 0.46L18.32 4.52L15.66 4.52Q14.40 4.52 13.58 5.19Q12.76 5.85 12.37 7.18Q11.98 8.51 11.98 10.47L11.98 10.47L11.98 18ZM25.32 18L20.77 18L20.77 0.64L25.32 0.64L25.32 3.26Q26.16 1.86 27.63 1.04Q29.10 0.22 31.06 0.22L31.06 0.22Q34.32 0.22 36.06 2.27Q37.81 4.31 37.81 8.23L37.81 8.23L37.81 18L33.27 18L33.27 8.65Q33.27 6.41 32.37 5.24Q31.48 4.07 29.55 4.07L29.55 4.07Q27.70 4.07 26.51 5.38Q25.32 6.69 25.32 9.04L25.32 9.04L25.32 18ZM45.23 18L40.69 18L40.69 0.64L45.23 0.64L45.23 3.30Q45.90 1.97 46.95 1.22Q48 0.46 49.37 0.46L49.37 0.46L51.57 0.46L51.57 4.52L48.91 4.52Q47.65 4.52 46.83 5.19Q46.01 5.85 45.62 7.18Q45.23 8.51 45.23 10.47L45.23 10.47L45.23 18Z"/></g>
        
      </svg>
    